<?xml version="1.0" encoding="iso-8859-1"?>
<!-- Generator: Adobe Illustrator 17.1.0, SVG Export Plug-In . SVG Version: 6.00 Build 0)  -->
<!DOCTYPE svg PUBLIC "-//W3C//DTD SVG 1.1//EN" "http://www.w3.org/Graphics/SVG/1.1/DTD/svg11.dtd">
<svg version="1.1" id="Capa_1" xmlns="http://www.w3.org/2000/svg" xmlns:xlink="http://www.w3.org/1999/xlink" x="0px" y="0px"
	 viewBox="0 0 295.599 295.599" style="enable-background:new 0 0 295.599 295.599;" xml:space="preserve">
<g>
	<path d="M168.913,77.726c4.358,2.371,11.284,4.104,19.541-1.24c14.875-9.625,14.39-25.406,12.48-34.707
		c-0.74,0.713-19.09,18.199-43.779,21.818C159.489,69.638,163.688,74.882,168.913,77.726z"/>
	<path d="M290.26,80.541l-73.22-39.848c2.561,15.404,0.131,36.295-19.895,49.252c-6.252,4.045-13.002,6.086-19.696,6.086
		c-5.535,0-11.031-1.449-16.182-4.25c-5.447-2.963-10.142-7.34-13.801-12.56c-3.659,5.221-8.354,9.598-13.801,12.56
		c-5.149,2.801-10.647,4.25-16.182,4.25c-6.695,0-13.443-2.037-19.696-6.082C77.933,77.101,75.372,56.457,77.824,41.093
		L5.339,80.541c-4.348,2.367-6.475,8.092-4.727,12.723l16.595,43.951c1.748,4.631,6.808,6.621,11.243,4.424l21.429-10.619
		c4.436-2.197,8.156,0.053,8.27,5.002l2.503,109.937c0.113,4.949,4.255,8.948,9.205,8.948h155.903c4.95,0,9.092-3.999,9.203-8.948
		l2.49-109.962c0.111-4.949,3.832-7.187,8.268-4.989l21.429,10.624c4.436,2.197,9.495,0.212,11.243-4.419l16.595-43.95
		C296.735,88.63,294.608,82.908,290.26,80.541z M147.799,183.23c-4.418,0-8-3.582-8-8c0-4.418,3.582-8,8-8s8,3.582,8,8
		C155.799,179.648,152.217,183.23,147.799,183.23z M147.799,151.23c-4.418,0-8-3.582-8-8c0-4.418,3.582-8,8-8s8,3.582,8,8
		C155.799,147.648,152.217,151.23,147.799,151.23z M147.799,119.23c-4.418,0-8-3.582-8-8c0-4.418,3.582-8,8-8s8,3.582,8,8
		C155.799,115.648,152.217,119.23,147.799,119.23z"/>
	<path d="M106.479,76.515c8.259,5.344,15.184,3.582,19.541,1.211c5.296-2.881,9.536-8.23,11.852-14.377
		c-24.739-4.209-43.159-21.697-43.159-21.697c-0.182-0.174-0.377-0.336-0.573-0.494C92.123,50.359,91.253,66.662,106.479,76.515z"/>
</g>
<g>
</g>
<g>
</g>
<g>
</g>
<g>
</g>
<g>
</g>
<g>
</g>
<g>
</g>
<g>
</g>
<g>
</g>
<g>
</g>
<g>
</g>
<g>
</g>
<g>
</g>
<g>
</g>
<g>
</g>
</svg>
