<?xml version="1.0" encoding="iso-8859-1"?>
<!-- Generator: Adobe Illustrator 19.0.0, SVG Export Plug-In . SVG Version: 6.00 Build 0)  -->
<svg xmlns="http://www.w3.org/2000/svg" xmlns:xlink="http://www.w3.org/1999/xlink" version="1.1" id="Layer_1" x="0px" y="0px" viewBox="0 0 512.094 512.094" style="enable-background:new 0 0 512.094 512.094;" xml:space="preserve" width="512" height="512">
<g>
	<polygon points="355.098,182.687 254.923,127.253 154.522,182.811 254.908,238.871  "/>
	<polygon points="269.923,376.318 369.922,318.063 369.922,208.768 269.923,264.845  "/>
	<polygon points="139.924,209.021 139.924,318.063 239.923,376.318 239.923,264.863  "/>
	<path d="M256.064,49.028c38.022,0,75.189,10.392,107.485,30.053l15.6-25.625c-36.997-22.522-79.559-34.428-123.085-34.428   c-63.31,0-122.83,24.654-167.598,69.421C43.7,133.217,19.046,192.737,19.046,256.047c0,30.296,5.778,60.131,16.883,87.948   l-25.585-9.397L0,362.758l75.01,27.552l27.552-75.009l-28.16-10.344l-10.424,28.38c-9.82-24.425-14.931-50.65-14.931-77.291   C49.046,141.896,141.914,49.028,256.064,49.028z"/>
	<path d="M512.094,149.295l-75.041-27.468l-27.468,75.041l28.172,10.313l10.4-28.412c9.817,24.421,14.927,50.643,14.927,77.279   c0,114.15-92.868,207.019-207.019,207.019c-37.634,0-74.475-10.194-106.539-29.48l-15.463,25.709   c36.733,22.094,78.921,33.771,122.002,33.771c63.31,0,122.83-24.654,167.598-69.421c44.767-44.768,69.421-104.288,69.421-167.598   c0-30.294-5.777-60.128-16.881-87.943l25.579,9.363L512.094,149.295z"/>
</g>















</svg>
